<?xml version="1.0" encoding="UTF-8" standalone="no"?>
<!-- Generator: Adobe Illustrator 16.0.0, SVG Export Plug-In . SVG Version: 6.00 Build 0)  -->

<svg
   xmlns:dc="http://purl.org/dc/elements/1.1/"
   xmlns:cc="http://creativecommons.org/ns#"
   xmlns:rdf="http://www.w3.org/1999/02/22-rdf-syntax-ns#"
   xmlns:svg="http://www.w3.org/2000/svg"
   xmlns="http://www.w3.org/2000/svg"
   xmlns:sodipodi="http://sodipodi.sourceforge.net/DTD/sodipodi-0.dtd"
   xmlns:inkscape="http://www.inkscape.org/namespaces/inkscape"
   version="1.1"
   id="Layer_1"
   x="0px"
   y="0px"
   width="24px"
   height="24px"
   viewBox="0 0 24 24"
   enable-background="new 0 0 24 24"
   xml:space="preserve"
   inkscape:version="0.48.4 r9939"
   sodipodi:docname="location.svg"
   inkscape:export-filename="/home/sbrunner/workspace/ol3-osm-app/image/destination50.png"
   inkscape:export-xdpi="187.5"
   inkscape:export-ydpi="187.5"><metadata
     id="metadata9"><rdf:RDF><cc:Work
         rdf:about=""><dc:format>image/svg+xml</dc:format><dc:type
           rdf:resource="http://purl.org/dc/dcmitype/StillImage" /><dc:title></dc:title></cc:Work></rdf:RDF></metadata><defs
     id="defs7" /><sodipodi:namedview
     pagecolor="#ffffff"
     bordercolor="#666666"
     borderopacity="1"
     objecttolerance="10"
     gridtolerance="10"
     guidetolerance="10"
     inkscape:pageopacity="0"
     inkscape:pageshadow="2"
     inkscape:window-width="1920"
     inkscape:window-height="1025"
     id="namedview5"
     showgrid="false"
     inkscape:zoom="9.8333333"
     inkscape:cx="-3.2033899"
     inkscape:cy="12"
     inkscape:window-x="-2"
     inkscape:window-y="-3"
     inkscape:window-maximized="1"
     inkscape:current-layer="Layer_1" /><path
     d="m 12.0005,12.38 c -2.117,0 -3.835,-1.729 -3.835,-3.862 0,-2.135 1.718,-3.863 3.835,-3.863 2.117,0 3.834,1.729 3.834,3.863 10e-4,2.132 -1.717,3.862 -3.834,3.862 m 0,-12.38 c -4.688,0 -8.488,3.827 -8.488,8.549 0,4.46 3.844,10.213 6.411,13.014 0.959,1.045 2.076,2.455 2.076,2.455 0,0 1.2,-1.418 2.229,-2.494 2.566,-2.684 6.259,-8.073 6.259,-12.975 0,-4.722 -3.8,-8.549 -8.487,-8.549"
     id="path3"
     inkscape:connector-curvature="0"
     style="fill:#44aa00" /></svg>